<?xml version="1.0" encoding="UTF-8"?>
<svg xmlns="http://www.w3.org/2000/svg" width="40" height="40" viewBox="0 0 40 40" role="img" aria-label="IDE Desktop Pet Sprite">
  <defs>
    <linearGradient id="bg" x1="0" y1="0" x2="40" y2="40" gradientUnits="userSpaceOnUse">
      <stop stop-color="#2A3246"/>
      <stop offset="1" stop-color="#0E121C"/>
    </linearGradient>
    <linearGradient id="gel" x1="20" y1="10" x2="20" y2="30" gradientUnits="userSpaceOnUse">
      <stop stop-color="#8EF3D6"/>
      <stop offset="1" stop-color="#27B498"/>
    </linearGradient>
    <radialGradient id="glow" cx="20" cy="22" r="6" gradientUnits="userSpaceOnUse">
      <stop stop-color="#6FE7CB" stop-opacity="0.22"/>
      <stop offset="1" stop-opacity="0"/>
    </radialGradient>
  </defs>
  <rect x="1.09" y="1.09" width="37.81" height="37.81" rx="9.69" fill="url(#bg)"/>
  <g>
    <ellipse cx="20" cy="30.16" rx="8.47" ry="2.34" fill="#000" fill-opacity="0.22"/>
    <ellipse cx="20" cy="22" rx="6" ry="5" fill="url(#glow)"/>
    <path d="M 20 10.312 C 26.047 10.312 30.078 19.031 30.078 24.262 C 30.078 28.719 27.659 29.688 26.047 29.688 L 13.953 29.688 C 12.341 29.688 9.922 28.719 9.922 24.262 C 9.922 19.031 13.953 10.312 20 10.312 Z" fill="url(#gel)" stroke="#106E5C" stroke-width="0.38" stroke-linejoin="round"/>
    <ellipse cx="13.95" cy="14.19" rx="3.23" ry="2.62" fill="#FFFFFF" fill-opacity="0.37"/>
    <ellipse cx="13.15" cy="21.09" rx="2.66" ry="1.56" fill="#FF9C9C" fill-opacity="0.35"/>
    <ellipse cx="24.20" cy="21.09" rx="2.66" ry="1.56" fill="#FF9C9C" fill-opacity="0.35"/>
    <path d="M 14.787 20.547 Q 16.271 18.75 17.755 20.547" fill="none" stroke="#122E28" stroke-width="0.85" stroke-linecap="round"/>
    <path d="M 22.245 20.547 Q 23.729 18.75 25.213 20.547" fill="none" stroke="#122E28" stroke-width="0.85" stroke-linecap="round"/>
    <path d="M 17.656 23.284 A 4.69 3.52 0 0 1 22.344 23.284 L 21.312 25.159 A 2.62 1.88 0 0 1 18.688 25.159 Z" fill="#122E28"/>
    <path d="M 18.688 25.159 A 2.62 1.88 0 0 0 21.312 25.159 Z" fill="#FF8E9B"/>
    <polygon points="8.125 11.875 8.5 12.75 9.375 13.125 8.5 13.5 8.125 14.375 7.75 13.5 6.875 13.125 7.75 12.75" fill="#FFEC9B"/>
    <polygon points="32.188 15.625 32.703 16.828 33.906 17.344 32.703 17.859 32.188 19.062 31.672 17.859 30.469 17.344 31.672 16.828" fill="#6FE7CB"/>
  </g>
</svg>
